<?xml version="1.0" encoding="UTF-8"?>
<svg id="Layer_1" xmlns="http://www.w3.org/2000/svg" version="1.1" viewBox="0 0 651 302">
  <!-- Generator: Adobe Illustrator 29.5.1, SVG Export Plug-In . SVG Version: 2.1.0 Build 141)  -->
  <defs>
    <style>
      .st0 {
        fill: #008fe2;
      }
    </style>
  </defs>
  <g>
    <path class="st0" d="M174.2,193.6c0,8.9-7.4,16.3-16.6,16-8.2-.3-15.5-6.9-15.4-16.2,0-8.7,7.1-15.9,16.2-15.8,8.9.1,15.8,7.3,15.8,16Z"/>
    <path class="st0" d="M158.3,134.7c8.5-.1,16,7,16,16,0,8.7-7,16.1-16.2,16-8.8,0-15.9-7.2-15.8-16.1,0-9.2,7.7-16,16-15.9Z"/>
    <path class="st0" d="M128.4,193.6c.2,8.7-7.1,16.2-16.3,16-8.5-.2-15.7-7.2-15.7-16.1,0-8.7,7.1-16,16.2-15.9,9.2.1,15.9,7.7,15.8,16Z"/>
    <path class="st0" d="M158.2,123.8c-8.7,0-16.1-7.1-15.9-16.3.2-8.6,7-15.7,16-15.7,9.2,0,16,7.5,15.9,16,0,8.9-7.2,16-16.1,16Z"/>
    <path class="st0" d="M128.4,150.7c.1,8.4-6.7,15.9-15.8,16-9.2.1-16.4-7.3-16.2-16.2.1-9,7.6-15.9,16.3-15.8,8.5.1,15.8,7.2,15.7,16Z"/>
    <path class="st0" d="M112.4,123.8c-8.7,0-15.8-7-16-15.7-.1-8.8,6.8-16.3,16-16.3,9.3,0,16.3,7.7,16,16.5-.3,8.3-7.1,15.5-16,15.5Z"/>
    <path class="st0" d="M204.1,134.7c8.3-.1,16,6.7,15.9,16,0,9-7.2,16-16,16-8.9,0-16-7.2-16-16,0-9.1,7.5-16.2,16.1-16Z"/>
    <path class="st0" d="M204.1,123.8c-8.7,0-16-7-16-16,0-8.7,6.8-16,16-16,8.9,0,16,7.1,16,16,0,9.2-7.5,16-16,16Z"/>
    <path class="st0" d="M188.1,193.6c0-8.8,7.1-16.1,16.3-16,8.7.1,15.7,7,15.7,16,0,9.3-7.6,16.3-16.6,16-8.4-.3-15.4-7.2-15.4-16Z"/>
  </g>
  <circle class="st0" cx="359.5" cy="106.8" r="15.1"/>
  <path class="st0" d="M384.4,198v3.2c0,.3,0,.7,0,1,.2,3,1.2,5.8,3.9,6.6,0,0,0,0,.1,0h15.2s9.4,0,9.4,0h.4c.2,0,.4-.3.3-.5-.4-1.1-.6-2.6-.7-4.4v-1.8c0-1.2,0-2.6,0-3.9v-36.4c0-2.3.3-4.5.9-5.7h0c0,0,0-.1,0-.1.7-2,3.6-8.4,11.3-8.4s11.2,5.4,11.2,16.1c0,0,0,28.4,0,35.9s0,1.6,0,1.7v1.1c.2,3,1.2,5.7,3.9,6.4,0,0,0,0,0,0h24.9c.2,0,.4-.3.3-.5-.4-1-.6-2.5-.7-4.2h0s0-43.6,0-43.6c0-22.9-11.5-36.6-30.8-36.6s-19.7,5.3-24.5,11c-1.2-4.9-4.6-8.3-9.3-9.2-5.6-1-16.4,0-16.4,0h-.9c-.2.1-.4.3-.4.5,1.4,5.4,1.7,17,1.7,28,0,0,0,32.2,0,43.8Z"/>
  <path class="st0" d="M345.2,127s0,65.1,0,72.6,0,1.6,0,1.7v1.1c.2,3,1.2,5.7,3.9,6.4,0,0,0,0,0,0h24.9c.2,0,.4-.3.3-.5-.4-1-.6-2.5-.7-4.2h0s0-77.2,0-77.2h-28.6Z"/>
  <path class="st0" d="M528.3,157.1h-32.3c.2-.7.6-1.5.9-2.3.6-1.4,1.6-2.8,2.9-4.1,1.3-1.3,3-2.4,5-3.3,2-.9,4.5-1.3,7.3-1.3s5.3.4,7.3,1.3c2,.9,3.7,2,5,3.3,1.3,1.3,2.3,2.7,2.9,4.1.4.8.7,1.6.9,2.3M554.6,168.1c0-.6,0-1.1,0-1.7,0-3.4-.6-7.1-.6-7.2h0c-.5-2.9-1.3-5.8-2.4-8.5-2.1-5.4-5.1-10.1-8.9-14.1-3.8-4-8.4-7.2-13.6-9.4-5.2-2.3-11-3.4-17.1-3.4s-11.9,1.2-17.1,3.7c-5.2,2.4-9.7,5.7-13.5,9.6-3.8,4-6.8,8.6-8.8,13.9-.9,2.3-1.5,4.3-2,6.6,0,0,0,.1,0,.2h0c-.3,1-1.8,7-.4,16.8h0s.4,1.8.4,1.8c.6,2.7,1.4,5.4,2.5,7.8,2.3,5.2,5.4,9.8,9.3,13.6,3.9,3.9,8.5,7,13.7,9.1,5.1,2.2,10.7,3.3,16.5,3.3s15.4-2.2,21.9-6.4c.4-.3.9-.6,1.3-.9,1.8-1.3,3.6-2.7,5.3-4.3,1.4-1.3,2.8-2.8,4-4.3,2.5-3.1,4.7-6.6,6.5-10.6l1.5-3.2h-12.7c-2.1,0-8.2,0-9.2,0-4,0-5.6,1.2-7.1,2.5l-.2.2c0,0-.1.1-.2.2h-.1c-1.1,1.2-1.6,1.6-2.9,2.5-2,1.3-4.6,1.9-8,1.9s-8.2-1.2-11.4-3.6c-2.8-2.1-4.7-5.1-5.5-8.7h58.9s.1-2.1.1-2.1c.1-1.8.1-3.6,0-5.3"/>
  <path class="st0" d="M233.8,208.9v-116.6h16.9c6.1,0,11.9,2.9,15.5,7.9l40,54.7v-62.5h28.5v116.6h-14.6c-6.1,0-11.8-2.9-15.4-7.8l-42.3-57.3v65.1h-28.5Z"/>
</svg>